<?xml version="1.0" standalone="no"?>
<!DOCTYPE svg PUBLIC "-//W3C//DTD SVG 20010904//EN"
 "http://www.w3.org/TR/2001/REC-SVG-20010904/DTD/svg10.dtd">
<svg version="1.0" xmlns="http://www.w3.org/2000/svg"
 width="700.000000pt" height="700.000000pt" viewBox="0 0 700.000000 700.000000"
 preserveAspectRatio="xMidYMid meet">
<metadata>
Created by potrace 1.14, written by Peter Selinger 2001-2017
</metadata>
<g transform="translate(0.000000,700.000000) scale(0.100000,-0.100000)"
fill="#000000" stroke="none">
<path d="M3238 6996 c-1 -2 -38 -6 -80 -10 -137 -12 -351 -49 -468 -81 -30 -9
-62 -17 -70 -19 -8 -2 -76 -24 -150 -49 -1335 -446 -2219 -1448 -2424 -2747
-34 -214 -41 -317 -41 -585 0 -203 10 -418 19 -434 2 -3 7 -37 11 -76 18 -181
104 -532 184 -747 222 -600 600 -1115 1086 -1481 50 -38 98 -75 108 -83 9 -8
20 -14 23 -14 3 0 23 -14 44 -30 21 -17 41 -30 45 -30 3 0 25 -13 48 -29 89
-61 384 -208 637 -318 92 -40 400 -147 455 -157 11 -3 62 -14 113 -25 51 -12
109 -24 129 -27 19 -3 45 -8 57 -10 11 -2 41 -7 66 -10 25 -3 56 -7 70 -9 142
-26 653 -27 800 -1 14 3 48 7 75 11 28 3 57 8 65 10 8 2 32 6 53 9 190 29 463
110 697 208 325 137 691 366 939 587 108 97 256 247 326 332 224 271 383 513
529 809 42 85 77 156 77 157 0 2 8 22 18 45 140 330 240 722 268 1054 10 111
9 436 -1 529 -51 484 -189 918 -423 1340 -203 364 -503 728 -834 1010 -136
116 -125 107 -264 207 -446 320 -962 539 -1471 624 -16 2 -40 6 -54 9 -14 2
-52 7 -85 11 -33 3 -69 8 -80 11 -22 5 -491 13 -497 9z"/>
</g>
</svg>
