<svg version="1.0" xmlns="http://www.w3.org/2000/svg" width="933.333" height="933.333" viewBox="0 0 700 700"><path d="M323.8.4c-.1.2-3.8.6-8 1-13.7 1.2-35.1 4.9-46.8 8.1-3 .9-6.2 1.7-7 1.9-.8.2-7.6 2.4-15 4.9C113.5 60.9 25.1 161.1 4.6 291 1.2 312.4.5 322.7.5 349.5c0 20.3 1 41.8 1.9 43.4.2.3.7 3.7 1.1 7.6 1.8 18.1 10.4 53.2 18.4 74.7 22.2 60 60 111.5 108.6 148.1 5 3.8 9.8 7.5 10.8 8.3.9.8 2 1.4 2.3 1.4.3 0 2.3 1.4 4.4 3 2.1 1.7 4.1 3 4.5 3 .3 0 2.5 1.3 4.8 2.9 8.9 6.1 38.4 20.8 63.7 31.8 9.2 4 40 14.7 45.5 15.7 1.1.3 6.2 1.4 11.3 2.5 5.1 1.2 10.9 2.4 12.9 2.7 1.9.3 4.5.8 5.7 1 1.1.2 4.1.7 6.6 1 2.5.3 5.6.7 7 .9 14.2 2.6 65.3 2.7 80 .1 1.4-.3 4.8-.7 7.5-1.1 2.8-.3 5.7-.8 6.5-1 .8-.2 3.2-.6 5.3-.9 19-2.9 46.3-11 69.7-20.8 32.5-13.7 69.1-36.6 93.9-58.7 10.8-9.7 25.6-24.7 32.6-33.2 22.4-27.1 38.3-51.3 52.9-80.9 4.2-8.5 7.7-15.6 7.7-15.7 0-.2.8-2.2 1.8-4.5 14-33 24-72.2 26.8-105.4 1-11.1.9-43.6-.1-52.9-5.1-48.4-18.9-91.8-42.3-134-20.3-36.4-50.3-72.8-83.4-101-13.6-11.6-12.5-10.7-26.4-20.7-44.6-32-96.2-53.9-147.1-62.4-1.6-.2-4-.6-5.4-.9-1.4-.2-5.2-.7-8.5-1.1-3.3-.3-6.9-.8-8-1.1-2.2-.5-49.1-1.3-49.7-.9z"/></svg>